<svg width="19" height="19" viewBox="0 0 19 19" fill="none" xmlns="http://www.w3.org/2000/svg">
<path d="M17.6458 1.93326L12.987 1.93328V0.773388C12.987 0.451843 12.7266 0.191406 12.4051 0.191406C12.0836 0.191406 11.8233 0.451843 11.8233 0.773388V1.93299H7.1685V0.773388C7.1685 0.451843 6.90812 0.191406 6.58665 0.191406C6.26518 0.191406 6.00481 0.451843 6.00481 0.773388V1.93299H1.35412C0.711472 1.93299 0.19043 2.45415 0.19043 3.09695V17.6465C0.19043 18.2893 0.711472 18.8105 1.35412 18.8105H17.6458C18.2884 18.8105 18.8095 18.2893 18.8095 17.6465V3.09695C18.8095 2.45442 18.2884 1.93326 17.6458 1.93326ZM17.6458 17.6465H1.35412V3.09695H6.00481V3.6833C6.00481 4.00482 6.26518 4.26528 6.58665 4.26528C6.90812 4.26528 7.1685 4.00482 7.1685 3.6833V3.09724H11.8233V3.68359C11.8233 4.00513 12.0836 4.26557 12.4051 4.26557C12.7266 4.26557 12.987 4.00513 12.987 3.68359V3.09724H17.6458V17.6465ZM13.5729 9.49902H14.7366C15.0577 9.49902 15.3184 9.23829 15.3184 8.91704V7.75307C15.3184 7.43182 15.0577 7.17109 14.7366 7.17109H13.5729C13.2517 7.17109 12.991 7.43182 12.991 7.75307V8.91704C12.991 9.23829 13.2517 9.49902 13.5729 9.49902ZM13.5729 14.1546H14.7366C15.0577 14.1546 15.3184 13.8941 15.3184 13.5726V12.4086C15.3184 12.0874 15.0577 11.8267 14.7366 11.8267H13.5729C13.2517 11.8267 12.991 12.0874 12.991 12.4086V13.5726C12.991 13.8944 13.2517 14.1546 13.5729 14.1546ZM10.0818 11.8267H8.91811C8.59693 11.8267 8.33626 12.0874 8.33626 12.4086V13.5726C8.33626 13.8941 8.59693 14.1546 8.91811 14.1546H10.0818C10.403 14.1546 10.6636 13.8941 10.6636 13.5726V12.4086C10.6636 12.0877 10.403 11.8267 10.0818 11.8267ZM10.0818 7.17109H8.91811C8.59693 7.17109 8.33626 7.43182 8.33626 7.75307V8.91704C8.33626 9.23829 8.59693 9.49902 8.91811 9.49902H10.0818C10.403 9.49902 10.6636 9.23829 10.6636 8.91704V7.75307C10.6636 7.43153 10.403 7.17109 10.0818 7.17109ZM5.42704 7.17109H4.26335C3.94217 7.17109 3.6815 7.43182 3.6815 7.75307V8.91704C3.6815 9.23829 3.94217 9.49902 4.26335 9.49902H5.42704C5.74822 9.49902 6.00888 9.23829 6.00888 8.91704V7.75307C6.00888 7.43153 5.74822 7.17109 5.42704 7.17109ZM5.42704 11.8267H4.26335C3.94217 11.8267 3.6815 12.0874 3.6815 12.4086V13.5726C3.6815 13.8941 3.94217 14.1546 4.26335 14.1546H5.42704C5.74822 14.1546 6.00888 13.8941 6.00888 13.5726V12.4086C6.00888 12.0877 5.74822 11.8267 5.42704 11.8267Z" fill="white"/>
</svg>
