<svg width="54" height="54" viewBox="0 0 54 54" fill="none" xmlns="http://www.w3.org/2000/svg">
<g clip-path="url(#clip0_1307_133)">
<path d="M27 54C41.9117 54 54 41.9117 54 27C54 12.0883 41.9117 0 27 0C12.0883 0 0 12.0883 0 27C0 41.9117 12.0883 54 27 54Z" fill="white"/>
<path d="M52 27C52 40.807 40.807 52 27 52C13.1929 52 2 40.807 2 27C2 13.1929 13.1929 2 27 2C40.807 2 52 13.1929 52 27Z" fill="url(#paint0_linear_1307_133)"/>
<path d="M39.0175 44.528C35.5995 46.876 31.4602 48.25 27 48.25C22.5397 48.25 18.4006 46.8758 14.9825 44.5278C13.4729 43.4908 12.8277 41.5155 13.7055 39.908C15.525 36.5755 19.2743 34.5 27 34.5C34.7257 34.5 38.475 36.5758 40.2945 39.908C41.1722 41.5155 40.527 43.491 39.0175 44.528Z" fill="white"/>
<path d="M26.9999 27C31.1421 27 34.4999 23.6423 34.4999 19.5C34.4999 15.3579 31.1421 12 26.9999 12C22.8579 12 19.5 15.3579 19.5 19.5C19.5 23.6423 22.8579 27 26.9999 27Z" fill="white"/>
</g>
<defs>
<linearGradient id="paint0_linear_1307_133" x1="28.1858" y1="2" x2="28.1858" y2="54.7778" gradientUnits="userSpaceOnUse">
<stop stop-color="#0F87CD"/>
<stop offset="0.55" stop-color="#1A69B4"/>
<stop offset="1" stop-color="#264B9B"/>
</linearGradient>
<clipPath id="clip0_1307_133">
<rect width="54" height="54" fill="white"/>
</clipPath>
</defs>
</svg>
