<svg width="17" height="17" viewBox="0 0 17 17" fill="none" xmlns="http://www.w3.org/2000/svg">
<path d="M8.5 0C3.7995 0 0 3.7995 0 8.5C0 13.2005 3.7995 17 8.5 17C13.2005 17 17 13.2005 17 8.5C17 3.7995 13.2005 0 8.5 0ZM12.155 12.155C11.8235 12.4865 11.288 12.4865 10.9565 12.155L8.5 9.6985L6.0435 12.155C5.712 12.4865 5.1765 12.4865 4.845 12.155C4.5135 11.8235 4.5135 11.288 4.845 10.9565L7.3015 8.5L4.845 6.0435C4.5135 5.712 4.5135 5.1765 4.845 4.845C5.1765 4.5135 5.712 4.5135 6.0435 4.845L8.5 7.3015L10.9565 4.845C11.288 4.5135 11.8235 4.5135 12.155 4.845C12.4865 5.1765 12.4865 5.712 12.155 6.0435L9.6985 8.5L12.155 10.9565C12.478 11.2795 12.478 11.8235 12.155 12.155Z" fill="url(#paint0_linear_1507_3311)"/>
<defs>
<linearGradient id="paint0_linear_1507_3311" x1="8.90316" y1="-5.60551e-10" x2="8.90318" y2="17.9444" gradientUnits="userSpaceOnUse">
<stop stop-color="#0F87CD"/>
<stop offset="0.55" stop-color="#1A69B4"/>
<stop offset="1" stop-color="#264B9B"/>
</linearGradient>
</defs>
</svg>
