<svg width="59" height="61" viewBox="0 0 59 61" fill="none" xmlns="http://www.w3.org/2000/svg">
<path d="M29.5004 2.10117e-08C32.1479 -0.000163711 34.6951 0.956583 36.6195 2.67397C38.5438 4.39137 39.6995 6.7392 39.8494 9.23585L39.8654 9.79012H56.6088C57.2148 9.7903 57.7982 10.0077 58.241 10.3985C58.6838 10.7893 58.9531 11.3243 58.9944 11.8954C59.0357 12.4665 58.846 13.0311 58.4636 13.4751C58.0811 13.9192 57.5345 14.2095 56.9341 14.2876L56.6088 14.3086H54.0702L49.988 53.5294C49.7834 55.4847 48.8497 57.3077 47.3536 58.6729C45.8575 60.038 43.8963 60.8564 41.8204 60.9819L41.259 61H17.7417C15.6606 60.9999 13.6473 60.3009 12.0617 59.0278C10.476 57.7547 9.42136 55.9905 9.08611 54.0505L9.01276 53.5264L4.92736 14.3086H2.39192C1.81391 14.3086 1.25547 14.1109 0.819853 13.7521C0.384241 13.3932 0.100934 12.8975 0.0223245 12.3566L0 12.0494C2.43749e-05 11.5034 0.209349 10.976 0.589264 10.5645C0.969179 10.1531 1.49398 9.88546 2.06662 9.81121L2.39192 9.79012H19.1354C19.1354 7.19362 20.2274 4.70346 22.1712 2.86746C24.115 1.03146 26.7514 2.10117e-08 29.5004 2.10117e-08ZM49.264 14.3086H9.73353L13.7743 53.0836C13.8638 53.9487 14.2674 54.758 14.9167 55.3741C15.5661 55.9902 16.4211 56.375 17.3366 56.4634L17.7417 56.4815H41.259C43.1726 56.4815 44.7959 55.2012 45.1659 53.4631L45.2296 53.0836L49.264 14.3086ZM35.0815 22.5926C35.6595 22.5926 36.218 22.7903 36.6536 23.1492C37.0892 23.508 37.3725 24.0037 37.4511 24.5446L37.4734 24.8519V45.9383C37.4733 46.5107 37.243 47.0617 36.8293 47.48C36.4156 47.8982 35.8492 48.1526 35.2445 48.1916C34.6399 48.2306 34.0422 48.0514 33.5721 47.6902C33.1019 47.3289 32.7945 46.8126 32.7119 46.2455L32.6896 45.9383V24.8519C32.6896 24.2527 32.9416 23.678 33.3902 23.2543C33.8387 22.8306 34.4471 22.5926 35.0815 22.5926ZM23.9192 22.5926C24.4972 22.5926 25.0557 22.7903 25.4913 23.1492C25.9269 23.508 26.2102 24.0037 26.2888 24.5446L26.3111 24.8519V45.9383C26.3109 46.5107 26.0807 47.0617 25.667 47.48C25.2533 47.8982 24.6869 48.1526 24.0822 48.1916C23.4776 48.2306 22.8799 48.0514 22.4098 47.6902C21.9396 47.3289 21.6322 46.8126 21.5496 46.2455L21.5273 45.9383V24.8519C21.5273 24.2527 21.7793 23.678 22.2279 23.2543C22.6764 22.8306 23.2848 22.5926 23.9192 22.5926ZM29.5004 4.51852C28.0997 4.51857 26.7502 5.01607 25.7199 5.91227C24.6895 6.80847 24.0536 8.03784 23.9383 9.35635L23.9192 9.79012H35.0815C35.0815 8.39201 34.4935 7.05115 33.4468 6.06254C32.4002 5.07392 30.9806 4.51852 29.5004 4.51852Z" fill="url(#paint0_linear_1507_3318)"/>
<defs>
<linearGradient id="paint0_linear_1507_3318" x1="30.8992" y1="-2.01139e-09" x2="30.8993" y2="64.3889" gradientUnits="userSpaceOnUse">
<stop stop-color="#0F87CD"/>
<stop offset="0.55" stop-color="#1A69B4"/>
<stop offset="1" stop-color="#264B9B"/>
</linearGradient>
</defs>
</svg>
