<svg width="60" height="60" viewBox="0 0 60 60" fill="none" xmlns="http://www.w3.org/2000/svg">
<path d="M29.6035 0.193359C37.4284 0.193359 44.9329 3.3018 50.4659 8.83485C55.999 14.3679 59.1074 21.8723 59.1074 29.6973C59.1074 37.5222 55.999 45.0266 50.4659 50.5597C44.9329 56.0927 37.4284 59.2012 29.6035 59.2012C21.7786 59.2012 14.2742 56.0927 8.7411 50.5597C3.20805 45.0266 0.0996094 37.5222 0.0996094 29.6973C0.0996094 21.8723 3.20805 14.3679 8.7411 8.83485C14.2742 3.3018 21.7786 0.193359 29.6035 0.193359ZM29.6035 12.8379C29.0684 12.8374 28.5391 12.9486 28.0493 13.1643C27.5596 13.3799 27.1202 13.6953 26.7593 14.0904C26.3983 14.4855 26.1238 14.9515 25.9531 15.4586C25.7824 15.9658 25.7194 16.503 25.768 17.0359L27.3064 33.9205C27.3661 34.4882 27.6338 35.0137 28.058 35.3956C28.4821 35.7776 29.0327 35.9889 29.6035 35.9889C30.1743 35.9889 30.7249 35.7776 31.1491 35.3956C31.5732 35.0137 31.841 34.4882 31.9006 33.9205L33.4348 17.0359C33.4834 16.5033 33.4205 15.9665 33.2501 15.4596C33.0796 14.9527 32.8054 14.487 32.445 14.092C32.0845 13.697 31.6456 13.3814 31.1564 13.1655C30.6671 12.9496 30.1383 12.838 29.6035 12.8379ZM29.6035 46.5566C30.4978 46.5566 31.3554 46.2014 31.9878 45.569C32.6201 44.9367 32.9754 44.079 32.9754 43.1848C32.9754 42.2905 32.6201 41.4328 31.9878 40.8005C31.3554 40.1681 30.4978 39.8129 29.6035 39.8129C28.7092 39.8129 27.8516 40.1681 27.2192 40.8005C26.5869 41.4328 26.2316 42.2905 26.2316 43.1848C26.2316 44.079 26.5869 44.9367 27.2192 45.569C27.8516 46.2014 28.7092 46.5566 29.6035 46.5566Z" fill="url(#paint0_linear_1320_6496)"/>
<defs>
<linearGradient id="paint0_linear_1320_6496" x1="31.0029" y1="0.193359" x2="31.003" y2="62.4794" gradientUnits="userSpaceOnUse">
<stop stop-color="#0F87CD"/>
<stop offset="0.55" stop-color="#1A69B4"/>
<stop offset="1" stop-color="#264B9B"/>
</linearGradient>
</defs>
</svg>
