<svg width="55" height="55" viewBox="0 0 55 55" fill="none" xmlns="http://www.w3.org/2000/svg">
<circle cx="27.5" cy="27.5" r="27.5" fill="url(#paint0_linear_629_239)"/>
<path d="M27.3578 14.0938C23.6437 14.0938 20.622 17.0689 20.622 20.7259V23.3788H19.2749C17.789 23.3788 16.5806 24.5686 16.5806 26.0316V37.9695C16.5806 39.4325 17.789 40.6224 19.2749 40.6224H35.4407C36.9267 40.6224 38.1351 39.4325 38.1351 37.9695V26.0316C38.1351 24.5686 36.9267 23.3788 35.4407 23.3788H34.0936V20.7259C34.0936 17.0689 31.0719 14.0938 27.3578 14.0938ZM23.3163 20.7259C23.3163 18.532 25.1296 16.7466 27.3578 16.7466C29.586 16.7466 31.3993 18.532 31.3993 20.7259V23.3788H23.3163V20.7259ZM35.4434 37.9695H28.705V34.9479C29.5065 34.4876 30.0521 33.6413 30.0521 32.6638C30.0521 31.2007 28.8437 30.0109 27.3578 30.0109C25.8719 30.0109 24.6635 31.2007 24.6635 32.6638C24.6635 33.64 25.2091 34.4876 26.0107 34.9479V37.9695H19.2749V26.0316H35.4407L35.4434 37.9695Z" fill="white"/>
<defs>
<linearGradient id="paint0_linear_629_239" x1="28.8043" y1="-1.81355e-09" x2="28.8044" y2="58.0556" gradientUnits="userSpaceOnUse">
<stop stop-color="#0F87CD"/>
<stop offset="0.55" stop-color="#1A69B4"/>
<stop offset="1" stop-color="#264B9B"/>
</linearGradient>
</defs>
</svg>
