<svg width="22" height="21" viewBox="0 0 22 21" fill="none" xmlns="http://www.w3.org/2000/svg">
<path d="M14.0216 14.271C15.0839 14.271 15.9461 15.1417 15.9461 16.2145L15.945 17.2828C16.0737 19.715 14.2833 20.9443 11.071 20.9443C7.87077 20.9443 6.04852 19.7338 6.04852 17.325V16.2145C6.04852 15.1417 6.91071 14.271 7.97305 14.271H14.0216ZM1.92453 8.71823H6.73695C6.54507 9.47228 6.55245 10.264 6.75835 11.0143C6.96426 11.7645 7.36149 12.4471 7.91036 12.9939L8.08852 13.1616L7.97305 13.1604C7.31302 13.1602 6.67104 13.378 6.14505 13.7807C5.61906 14.1833 5.23795 14.7486 5.05986 15.3904L5.02247 15.3916C1.82225 15.3916 0 14.1811 0 11.7723V10.6617C0 9.5889 0.862189 8.71823 1.92453 8.71823ZM20.0701 8.71823C21.1324 8.71823 21.9946 9.5889 21.9946 10.6617L21.9935 11.7301C22.1222 14.1622 20.3318 15.3916 17.1195 15.3916L16.9337 15.3893C16.7646 14.7844 16.4152 14.2467 15.9329 13.8493C15.4507 13.452 14.859 13.2141 14.2382 13.1682L14.0216 13.1604L13.9061 13.1616C14.5166 12.6201 14.9662 11.9181 15.2048 11.1337C15.4434 10.3494 15.4617 9.51355 15.2577 8.71934L20.0701 8.71823ZM10.9973 6.49711C11.4306 6.49711 11.8596 6.58329 12.2599 6.75072C12.6601 6.91815 13.0238 7.16356 13.3302 7.47294C13.6365 7.78231 13.8796 8.14959 14.0454 8.55381C14.2112 8.95802 14.2965 9.39126 14.2965 9.82878C14.2965 10.2663 14.2112 10.6995 14.0454 11.1038C13.8796 11.508 13.6365 11.8753 13.3302 12.1846C13.0238 12.494 12.6601 12.7394 12.2599 12.9068C11.8596 13.0743 11.4306 13.1604 10.9973 13.1604C10.1223 13.1604 9.28314 12.8094 8.66442 12.1846C8.04571 11.5598 7.69811 10.7124 7.69811 9.82878C7.69811 8.94517 8.04571 8.09775 8.66442 7.47294C9.28314 6.84813 10.1223 6.49711 10.9973 6.49711ZM4.94879 0.944336C5.82379 0.944336 6.66295 1.29535 7.28167 1.92016C7.90039 2.54497 8.24798 3.39239 8.24798 4.276C8.24798 5.15962 7.90039 6.00704 7.28167 6.63185C6.66295 7.25666 5.82379 7.60767 4.94879 7.60767C4.07379 7.60767 3.23463 7.25666 2.61591 6.63185C1.99719 6.00704 1.6496 5.15962 1.6496 4.276C1.6496 3.39239 1.99719 2.54497 2.61591 1.92016C3.23463 1.29535 4.07379 0.944336 4.94879 0.944336ZM17.0458 0.944336C17.9208 0.944336 18.76 1.29535 19.3787 1.92016C19.9974 2.54497 20.345 3.39239 20.345 4.276C20.345 5.15962 19.9974 6.00704 19.3787 6.63185C18.76 7.25666 17.9208 7.60767 17.0458 7.60767C16.1708 7.60767 15.3317 7.25666 14.7129 6.63185C14.0942 6.00704 13.7466 5.15962 13.7466 4.276C13.7466 3.39239 14.0942 2.54497 14.7129 1.92016C15.3317 1.29535 16.1708 0.944336 17.0458 0.944336Z" fill="url(#paint0_linear_1296_378)"/>
<defs>
<linearGradient id="paint0_linear_1296_378" x1="11.5217" y1="0.944336" x2="11.5218" y2="22.0554" gradientUnits="userSpaceOnUse">
<stop stop-color="#0F87CD"/>
<stop offset="0.55" stop-color="#1A69B4"/>
<stop offset="1" stop-color="#264B9B"/>
</linearGradient>
</defs>
</svg>
