<svg width="19" height="23" viewBox="0 0 19 23" fill="none" xmlns="http://www.w3.org/2000/svg">
<path fill-rule="evenodd" clip-rule="evenodd" d="M6.10346 3.14711V3.74738C3.09611 5.00579 0.995012 9.13907 1.07126 12.7212L1.07123 14.7108C-0.468287 16.7304 -0.377703 19.7416 3.46321 19.7416H6.10346C6.10346 20.5668 6.41861 21.3582 6.9796 21.9418C7.54053 22.5253 8.30137 22.8531 9.09474 22.8531C9.88811 22.8531 10.649 22.5253 11.2099 21.9418C11.7709 21.3582 12.086 20.5668 12.086 19.7416H14.7335C18.5671 19.7416 18.6227 16.7241 17.0834 14.7045L17.1262 12.724C17.2037 9.13765 15.0986 5.00066 12.086 3.74404V3.14711C12.086 2.32191 11.7709 1.53048 11.2099 0.946974C10.649 0.363463 9.88811 0.0356445 9.09474 0.0356445C8.30137 0.0356445 7.54053 0.363463 6.9796 0.946974C6.41861 1.53048 6.10346 2.3219 6.10346 3.14711ZM10.0918 3.14711C10.0918 3.16817 10.0913 3.18918 10.09 3.21008C9.76524 3.16852 9.43441 3.14711 9.09877 3.14711C8.76033 3.14711 8.42682 3.16887 8.09956 3.21109C8.09833 3.18986 8.09766 3.16852 8.09766 3.14711C8.09766 2.87205 8.20276 2.60824 8.3897 2.41374C8.57664 2.21923 8.83032 2.10996 9.09474 2.10996C9.35916 2.10996 9.61285 2.21923 9.79979 2.41374C9.98684 2.60824 10.0918 2.87205 10.0918 3.14711ZM8.09766 19.7416C8.09766 20.0167 8.20276 20.2805 8.3897 20.4751C8.57664 20.6695 8.83032 20.7788 9.09474 20.7788C9.35916 20.7788 9.61285 20.6695 9.79979 20.4751C9.98684 20.2805 10.0918 20.0167 10.0918 19.7416H8.09766ZM14.7335 17.6673C15.5854 17.6673 16.0449 16.6279 15.4906 15.9552C15.2212 15.6283 15.0777 15.2124 15.087 14.7855L15.1325 12.6774C15.2086 9.15597 12.485 5.22143 9.09877 5.22143C5.71327 5.22143 2.99003 9.15465 3.06497 12.6753L3.10988 14.7859C3.11897 15.2127 2.97547 15.6284 2.70616 15.9552C2.15177 16.6279 2.61134 17.6673 3.46321 17.6673H14.7335Z" fill="url(#paint0_linear_1296_382)"/>
<defs>
<linearGradient id="paint0_linear_1296_382" x1="9.50735" y1="0.0356445" x2="9.50737" y2="24.1207" gradientUnits="userSpaceOnUse">
<stop stop-color="#0F87CD"/>
<stop offset="0.55" stop-color="#1A69B4"/>
<stop offset="1" stop-color="#264B9B"/>
</linearGradient>
</defs>
</svg>
