<svg width="20" height="21" viewBox="0 0 20 21" fill="none" xmlns="http://www.w3.org/2000/svg">
<path d="M10 0.027832C10.7139 0.027832 11.4187 0.105891 12.1059 0.259375C12.6865 0.38907 12.899 1.1369 12.4797 1.57493C12.0148 2.06051 11.75 2.71396 11.75 3.41325C11.75 4.63245 12.5612 5.68115 13.6858 5.95101C14.0559 6.03981 14.3039 6.40273 14.2632 6.79603C14.2544 6.88065 14.25 6.96854 14.25 7.05908C14.25 8.49732 15.3693 9.66325 16.75 9.66325C17.4766 9.66325 18.1513 9.3396 18.6235 8.78338C19.0526 8.27795 19.8536 8.53871 19.9301 9.20873C19.9766 9.61612 20 10.0287 20 10.4445C20 16.1975 15.5228 20.8612 10 20.8612C4.47715 20.8612 0 16.1975 0 10.4445C0 4.69153 4.47715 0.027832 10 0.027832ZM13 14.6112C12.4477 14.6112 12 15.0775 12 15.6528C12 16.2281 12.4477 16.6945 13 16.6945C13.5523 16.6945 14 16.2281 14 15.6528C14 15.0775 13.5523 14.6112 13 14.6112ZM6 13.5695C5.44772 13.5695 5 14.0359 5 14.6112C5 15.1865 5.44772 15.6528 6 15.6528C6.55228 15.6528 7 15.1865 7 14.6112C7 14.0359 6.55228 13.5695 6 13.5695ZM10 9.40283C9.44772 9.40283 9 9.8692 9 10.4445C9 11.0198 9.44772 11.4862 10 11.4862C10.5523 11.4862 11 11.0198 11 10.4445C11 9.8692 10.5523 9.40283 10 9.40283ZM5 6.27783C4.44772 6.27783 4 6.7442 4 7.3195C4 7.8948 4.44772 8.36117 5 8.36117C5.55228 8.36117 6 7.8948 6 7.3195C6 6.7442 5.55228 6.27783 5 6.27783Z" fill="url(#paint0_linear_1296_422)"/>
<defs>
<linearGradient id="paint0_linear_1296_422" x1="10.4743" y1="0.027832" x2="10.4743" y2="22.0186" gradientUnits="userSpaceOnUse">
<stop stop-color="#0F87CD"/>
<stop offset="0.55" stop-color="#1A69B4"/>
<stop offset="1" stop-color="#264B9B"/>
</linearGradient>
</defs>
</svg>
