<svg width="18" height="19" viewBox="0 0 18 19" fill="none" xmlns="http://www.w3.org/2000/svg">
<path fill-rule="evenodd" clip-rule="evenodd" d="M16.325 7.85184C16.0538 5.06934 14.4088 0.694336 9.32504 0.694336C4.24129 0.694336 2.59629 5.06934 2.32504 7.85184C1.37349 8.21297 0.745831 9.12657 0.750021 10.1443V11.3693C0.750021 12.7224 1.84694 13.8193 3.20004 13.8193C4.55314 13.8193 5.65004 12.7224 5.65004 11.3693V10.1443C5.64564 9.14854 5.04104 8.25372 4.11879 7.87809C4.29379 6.26809 5.15129 2.44434 9.32504 2.44434C13.4988 2.44434 14.3475 6.26809 14.5225 7.87809C13.6022 8.25453 13.0006 9.14995 13 10.1443V11.3693C13.0038 12.3099 13.5439 13.166 14.3913 13.5743C14.0238 14.2656 13.0875 15.2018 10.7863 15.4818C10.3263 14.7833 9.4363 14.5079 8.66218 14.8246C7.88806 15.1413 7.44623 15.9615 7.60766 16.7821C7.76909 17.6028 8.48866 18.1943 9.32504 18.1943C9.98596 18.1907 10.5884 17.815 10.8825 17.2231C14.6363 16.7943 15.835 14.8606 16.2113 13.7231C17.2292 13.3934 17.9138 12.4392 17.9 11.3693V10.1443C17.9043 9.12657 17.2766 8.21297 16.325 7.85184ZM3.90004 11.3693C3.90004 11.7559 3.58664 12.0693 3.20004 12.0693C2.81344 12.0693 2.50004 11.7559 2.50004 11.3693V10.1443C2.50004 9.89425 2.63346 9.66316 2.85004 9.53812C3.06662 9.41307 3.33346 9.41307 3.55004 9.53812C3.76662 9.66316 3.90004 9.89425 3.90004 10.1443V11.3693ZM14.75 10.1443C14.75 9.75774 15.0634 9.44434 15.45 9.44434C15.8366 9.44434 16.15 9.75774 16.15 10.1443V11.3693C16.15 11.7559 15.8366 12.0693 15.45 12.0693C15.0634 12.0693 14.75 11.7559 14.75 11.3693V10.1443Z" fill="url(#paint0_linear_1296_428)"/>
<defs>
<linearGradient id="paint0_linear_1296_428" x1="9.73185" y1="0.694336" x2="9.73186" y2="19.1666" gradientUnits="userSpaceOnUse">
<stop stop-color="#0F87CD"/>
<stop offset="0.55" stop-color="#1A69B4"/>
<stop offset="1" stop-color="#264B9B"/>
</linearGradient>
</defs>
</svg>
