<svg width="20" height="21" viewBox="0 0 20 21" fill="none" xmlns="http://www.w3.org/2000/svg">
<path d="M9 17.7725V14.7725C9 13.9768 8.68393 13.2137 8.12132 12.6511C7.55871 12.0885 6.79565 11.7725 6 11.7725H3C2.20435 11.7725 1.44129 12.0885 0.87868 12.6511C0.316071 13.2137 0 13.9768 0 14.7725V17.7725C0 18.5681 0.316071 19.3312 0.87868 19.8938C1.44129 20.4564 2.20435 20.7725 3 20.7725H6C6.79565 20.7725 7.55871 20.4564 8.12132 19.8938C8.68393 19.3312 9 18.5681 9 17.7725ZM1 17.7725V14.7725C1 14.242 1.21071 13.7333 1.58579 13.3582C1.96086 12.9832 2.46957 12.7725 3 12.7725H6C6.53043 12.7725 7.03914 12.9832 7.41421 13.3582C7.78928 13.7333 8 14.242 8 14.7725V17.7725C8 18.3029 7.78928 18.8116 7.41421 19.1867C7.03914 19.5617 6.53043 19.7725 6 19.7725H3C2.46957 19.7725 1.96086 19.5617 1.58579 19.1867C1.21071 18.8116 1 18.3029 1 17.7725ZM20 14.7725C20 13.9768 19.6839 13.2137 19.1213 12.6511C18.5587 12.0885 17.7956 11.7725 17 11.7725H14C13.2043 11.7725 12.4413 12.0885 11.8787 12.6511C11.3161 13.2137 11 13.9768 11 14.7725V17.7725C11 18.5681 11.3161 19.3312 11.8787 19.8938C12.4413 20.4564 13.2043 20.7725 14 20.7725H17C17.7956 20.7725 18.5587 20.4564 19.1213 19.8938C19.6839 19.3312 20 18.5681 20 17.7725V14.7725ZM19 17.7725C19 18.3029 18.7893 18.8116 18.4142 19.1867C18.0391 19.5617 17.5304 19.7725 17 19.7725H14C13.4696 19.7725 12.9609 19.5617 12.5858 19.1867C12.2107 18.8116 12 18.3029 12 17.7725V14.7725C12 14.242 12.2107 13.7333 12.5858 13.3582C12.9609 12.9832 13.4696 12.7725 14 12.7725H17C17.5304 12.7725 18.0391 12.9832 18.4142 13.3582C18.7893 13.7333 19 14.242 19 14.7725V17.7725ZM20 3.77246C20 2.97681 19.6839 2.21375 19.1213 1.65114C18.5587 1.08853 17.7956 0.772461 17 0.772461H14C13.2043 0.772461 12.4413 1.08853 11.8787 1.65114C11.3161 2.21375 11 2.97681 11 3.77246V6.77246C11 7.56811 11.3161 8.33117 11.8787 8.89378C12.4413 9.45639 13.2043 9.77246 14 9.77246H17C17.7956 9.77246 18.5587 9.45639 19.1213 8.89378C19.6839 8.33117 20 7.56811 20 6.77246V3.77246ZM19 6.77246C19 7.30289 18.7893 7.8116 18.4142 8.18667C18.0391 8.56175 17.5304 8.77246 17 8.77246H14C13.4696 8.77246 12.9609 8.56175 12.5858 8.18667C12.2107 7.8116 12 7.30289 12 6.77246V3.77246C12 3.24203 12.2107 2.73332 12.5858 2.35825C12.9609 1.98317 13.4696 1.77246 14 1.77246H17C17.5304 1.77246 18.0391 1.98317 18.4142 2.35825C18.7893 2.73332 19 3.24203 19 3.77246V6.77246ZM0 3.77246V6.77246C0 7.56811 0.316071 8.33117 0.87868 8.89378C1.44129 9.45639 2.20435 9.77246 3 9.77246H6C6.79565 9.77246 7.55871 9.45639 8.12132 8.89378C8.68393 8.33117 9 7.56811 9 6.77246V3.77246C9 2.97681 8.68393 2.21375 8.12132 1.65114C7.55871 1.08853 6.79565 0.772461 6 0.772461H3C2.20435 0.772461 1.44129 1.08853 0.87868 1.65114C0.316071 2.21375 0 2.97681 0 3.77246ZM1 3.77246C1 3.24203 1.21071 2.73332 1.58579 2.35825C1.96086 1.98317 2.46957 1.77246 3 1.77246H6C6.53043 1.77246 7.03914 1.98317 7.41421 2.35825C7.78928 2.73332 8 3.24203 8 3.77246V6.77246C8 7.30289 7.78928 7.8116 7.41421 8.18667C7.03914 8.56175 6.53043 8.77246 6 8.77246H3C2.46957 8.77246 1.96086 8.56175 1.58579 8.18667C1.21071 7.8116 1 7.30289 1 6.77246V3.77246ZM7.5 15.0105L4.057 18.4405L2.235 16.6185L2.973 15.8805L4.057 16.9685L6.762 14.2725L7.5 15.0105Z" fill="url(#paint0_linear_1296_432)"/>
<defs>
<linearGradient id="paint0_linear_1296_432" x1="10.4743" y1="0.772461" x2="10.4743" y2="21.8836" gradientUnits="userSpaceOnUse">
<stop stop-color="#0F87CD"/>
<stop offset="0.55" stop-color="#1A69B4"/>
<stop offset="1" stop-color="#264B9B"/>
</linearGradient>
</defs>
</svg>
