<svg width="23" height="22" viewBox="0 0 23 22" fill="none" xmlns="http://www.w3.org/2000/svg">
<path d="M12.5538 8.24001H10.4455V6.13167H12.5538M12.5538 16.6733H10.4455V10.3483H12.5538M11.4997 0.86084C10.1153 0.86084 8.74453 1.13351 7.46555 1.66328C6.18658 2.19304 5.02447 2.96954 4.04559 3.94842C2.06864 5.92537 0.958008 8.60668 0.958008 11.4025C0.958008 14.1983 2.06864 16.8796 4.04559 18.8566C5.02447 19.8355 6.18658 20.612 7.46555 21.1417C8.74453 21.6715 10.1153 21.9442 11.4997 21.9442C14.2955 21.9442 16.9768 20.8335 18.9538 18.8566C20.9307 16.8796 22.0413 14.1983 22.0413 11.4025C22.0413 10.0182 21.7687 8.64736 21.2389 7.36839C20.7091 6.08941 19.9326 4.92731 18.9538 3.94842C17.9749 2.96954 16.8128 2.19304 15.5338 1.66328C14.2548 1.13351 12.884 0.86084 11.4997 0.86084Z" fill="url(#paint0_linear_1296_437)"/>
<defs>
<linearGradient id="paint0_linear_1296_437" x1="11.9997" y1="0.86084" x2="11.9997" y2="23.1155" gradientUnits="userSpaceOnUse">
<stop stop-color="#0F87CD"/>
<stop offset="0.55" stop-color="#1A69B4"/>
<stop offset="1" stop-color="#264B9B"/>
</linearGradient>
</defs>
</svg>
