<svg width="21" height="23" viewBox="0 0 21 23" fill="none" xmlns="http://www.w3.org/2000/svg">
<path d="M16.3913 10.9077V4.84688C16.3913 4.77035 16.3763 4.69455 16.347 4.62384C16.3177 4.55313 16.2748 4.48889 16.2206 4.43481L13.1684 1.38256C13.0594 1.27343 12.9115 1.21205 12.7573 1.21191H1.45968C1.30539 1.21191 1.15742 1.27321 1.04832 1.3823C0.939221 1.4914 0.87793 1.63937 0.87793 1.79366V20.0218C0.87793 20.1761 0.939221 20.3241 1.04832 20.4332C1.15742 20.5423 1.30539 20.6036 1.45968 20.6036H9.60418M4.75626 8.96858H12.5129M4.75626 5.09025H8.6346M4.75626 12.8469H7.66501" stroke="url(#paint0_linear_1296_446)" stroke-width="1.5" stroke-linecap="round" stroke-linejoin="round"/>
<path d="M12.5127 1.21191V4.5085C12.5127 4.66279 12.574 4.81076 12.6831 4.91986C12.7922 5.02896 12.9402 5.09025 13.0944 5.09025H16.391M16.3833 13.9377L18.8615 14.567C19.1194 14.6329 19.3007 14.8675 19.293 15.1332C19.1262 20.716 15.9062 21.5732 15.9062 21.5732C15.9062 21.5732 12.6863 20.716 12.5195 15.1332C12.5165 15.0039 12.5576 14.8774 12.636 14.7745C12.7144 14.6716 12.8255 14.5984 12.9509 14.567L15.4292 13.9377C15.7424 13.8582 16.0701 13.8582 16.3833 13.9377Z" stroke="url(#paint1_linear_1296_446)" stroke-width="1.5" stroke-linecap="round" stroke-linejoin="round"/>
<defs>
<linearGradient id="paint0_linear_1296_446" x1="9.0025" y1="1.21191" x2="9.00252" y2="21.6809" gradientUnits="userSpaceOnUse">
<stop stop-color="#0F87CD"/>
<stop offset="0.55" stop-color="#1A69B4"/>
<stop offset="1" stop-color="#264B9B"/>
</linearGradient>
<linearGradient id="paint1_linear_1296_446" x1="16.0638" y1="1.21191" x2="16.0638" y2="22.7043" gradientUnits="userSpaceOnUse">
<stop stop-color="#0F87CD"/>
<stop offset="0.55" stop-color="#1A69B4"/>
<stop offset="1" stop-color="#264B9B"/>
</linearGradient>
</defs>
</svg>
