<svg width="110" height="110" viewBox="0 0 110 110" fill="none" xmlns="http://www.w3.org/2000/svg">
<circle cx="54.7951" cy="54.7951" r="54.7951" fill="white"/>
<path d="M92.5451 27.9401C92.0594 27.3135 91.3517 26.8973 90.5681 26.7773C89.7844 26.6573 88.9846 26.8426 88.3336 27.2951C87.6827 27.7476 87.2302 28.4327 87.0697 29.2091C86.9091 29.9855 87.0527 30.7938 87.4707 31.4674C91.077 36.6488 93.4131 42.6062 94.2901 48.8578C95.167 55.1094 94.5603 61.4797 92.5188 67.4533C90.4774 73.4269 87.0586 78.8362 82.539 83.2436C78.0194 87.651 72.5259 90.9327 66.5029 92.8233C60.4798 94.714 54.0963 95.1604 47.8687 94.1266C41.6412 93.0927 35.7443 90.6076 30.6553 86.8723C25.5662 83.1369 21.4277 78.2562 18.5747 72.6248C15.7216 66.9935 14.234 60.7698 14.2323 54.4569C14.2712 45.8017 17.084 37.387 22.2575 30.4481C27.4311 23.5092 34.6929 18.4117 42.9769 15.9039C43.367 15.7881 43.7304 15.5966 44.0465 15.3403C44.3625 15.084 44.625 14.768 44.819 14.4103C45.0129 14.0526 45.1345 13.6602 45.1768 13.2555C45.2191 12.8508 45.1812 12.4417 45.0654 12.0516C44.9496 11.6616 44.7581 11.2981 44.5019 10.9821C44.2456 10.666 43.9296 10.4035 43.5719 10.2095C43.2142 10.0156 42.8218 9.89403 42.4171 9.85174C42.0124 9.80945 41.6033 9.84729 41.2132 9.96309C32.9632 12.4192 25.5587 17.1212 19.8275 23.5437C14.0962 29.9661 10.2639 37.8559 8.75885 46.3312C7.25386 54.8065 8.13547 63.5333 11.3052 71.5363C14.4749 79.5394 19.8077 86.5032 26.7077 91.6496C33.6078 96.796 41.803 99.9221 50.3776 100.679C58.9522 101.435 67.5682 99.7919 75.2626 95.933C82.9571 92.0742 89.4268 86.1515 93.9486 78.827C98.4705 71.5025 100.866 63.0648 100.868 54.4569C100.886 44.9726 97.9793 35.7133 92.5451 27.9401Z" fill="url(#paint0_linear_1288_192)"/>
<path d="M65.9363 15.9042C70.76 17.3678 75.2637 19.7299 79.2102 22.866C79.5292 23.1179 79.8946 23.3046 80.2857 23.4153C80.6768 23.5259 81.0859 23.5585 81.4896 23.5111C81.8933 23.4637 82.2837 23.3372 82.6385 23.139C82.9933 22.9407 83.3056 22.6745 83.5575 22.3555C83.8094 22.0365 83.996 21.671 84.1067 21.28C84.2174 20.8889 84.25 20.4798 84.2026 20.0761C84.1552 19.6724 84.0287 19.282 83.8304 18.9272C83.6321 18.5724 83.3659 18.2601 83.047 18.0082C78.4487 14.3669 73.1979 11.6365 67.5762 9.96342C66.7884 9.72955 65.94 9.8182 65.2176 10.2099C64.4951 10.6016 63.9579 11.2642 63.724 12.052C63.4901 12.8398 63.5788 13.6882 63.9705 14.4106C64.3621 15.1331 65.0248 15.6703 65.8126 15.9042H65.9363ZM52.2602 13.336C52.5609 13.6094 52.9063 13.8291 53.2813 13.9858C53.6516 14.1495 54.0521 14.2341 54.457 14.2341C54.862 14.2341 55.2624 14.1495 55.6328 13.9858C56.0075 13.8286 56.3528 13.6089 56.6539 13.336C56.9406 13.0469 57.1675 12.704 57.3215 12.3271C57.4755 11.9501 57.5535 11.5464 57.5512 11.1392C57.5398 10.32 57.2193 9.5353 56.6539 8.94235C56.2966 8.56981 55.8519 8.29255 55.3601 8.13583C54.8683 7.9791 54.3451 7.9479 53.8382 8.04505C53.6445 8.07936 53.4568 8.14191 53.2813 8.2307C53.0838 8.29773 52.8964 8.39142 52.7243 8.50917L52.2602 8.88047C51.9785 9.17474 51.7577 9.52173 51.6104 9.90154C51.4437 10.2927 51.3595 10.714 51.3629 11.1392C51.3678 11.5435 51.4519 11.943 51.6104 12.315C51.7676 12.6897 51.9874 13.0349 52.2602 13.336ZM27.1976 50.1873C26.8664 50.5153 26.6035 50.9057 26.4241 51.3359C26.2447 51.766 26.1523 52.2275 26.1523 52.6936C26.1523 53.1597 26.2447 53.6212 26.4241 54.0513C26.6035 54.4815 26.8664 54.8719 27.1976 55.1999L44.8961 73.0221C45.2241 73.3533 45.6145 73.6162 46.0446 73.7956C46.4748 73.975 46.9363 74.0674 47.4024 74.0674C47.8685 74.0674 48.3299 73.975 48.7601 73.7956C49.1903 73.6162 49.5807 73.3533 49.9086 73.0221L81.7165 41.0596C82.4017 40.3949 82.7948 39.4852 82.8093 38.5307C82.8238 37.5762 82.4585 36.6549 81.7938 35.9697C81.1291 35.2845 80.2194 34.8914 79.2649 34.8769C78.3104 34.8624 77.3892 35.2277 76.704 35.8924L47.3714 65.2249L32.2101 50.1873C31.5436 49.526 30.6428 49.1549 29.7039 49.1549C28.7649 49.1549 27.8641 49.526 27.1976 50.1873Z" fill="url(#paint1_linear_1288_192)"/>
<defs>
<linearGradient id="paint0_linear_1288_192" x1="56.6576" y1="9.83496" x2="56.6576" y2="105.915" gradientUnits="userSpaceOnUse">
<stop stop-color="#0F87CD"/>
<stop offset="0.55" stop-color="#1A69B4"/>
<stop offset="1" stop-color="#264B9B"/>
</linearGradient>
<linearGradient id="paint1_linear_1288_192" x1="56.5652" y1="7.98975" x2="56.5653" y2="77.7384" gradientUnits="userSpaceOnUse">
<stop stop-color="#0F87CD"/>
<stop offset="0.55" stop-color="#1A69B4"/>
<stop offset="1" stop-color="#264B9B"/>
</linearGradient>
</defs>
</svg>
